<svg width="44" height="44" viewBox="0 0 44 44" fill="none" xmlns="http://www.w3.org/2000/svg">
<circle cx="22" cy="22" r="22" fill="url(#paint0_radial_56_211)"/>
<path d="M32.8603 8.94687C27.2034 1.44274 11.1561 7.04198 9.94389 6.52246C9.94389 6.52246 9.77071 7.61922 10.4057 8.31191C9.59754 8.88915 8.61623 7.90784 8.61623 7.90784C8.61623 7.90784 7.5772 10.3322 8.67396 11.8331C6.94223 14.0843 9.0203 25.8023 9.0203 25.8023H35.5156C35.5156 25.8023 38.6905 16.6242 35.0539 10.39C34.3034 8.94687 33.4953 9.81273 32.8603 8.94687Z" fill="#805334"/>
<path d="M35.8043 20.9535C35.6889 21.5884 35.5734 22.1657 35.4002 22.512C35.1116 23.0893 34.4767 23.4356 34.4767 23.4356C34.4767 23.4356 34.6498 22.2234 34.5921 20.4917C33.784 8.88914 30.3782 14.4307 22.5278 14.4307C14.6773 14.4307 11.2716 8.88914 10.5212 20.5494C10.4634 22.2234 10.6366 23.4933 10.6366 23.4933C10.6366 23.4933 10.0017 23.147 9.71303 22.5697C9.53986 22.2234 9.42441 21.6462 9.30896 21.0112C8.26993 20.7226 7 20.9535 7 24.0128C7 25.9177 7.69269 27.4186 9.94393 27.5917C10.9252 35.2113 12.657 36.4235 18.3716 39.1365C19.8147 39.8292 20.796 39.6561 22.5278 39.6561C24.2595 39.6561 25.2408 39.8292 26.7416 39.1365C32.514 36.4235 34.2458 35.2113 35.1693 27.5917C37.4206 27.4186 38.1133 25.86 38.1133 24.0128C38.1133 20.9535 36.7856 20.7226 35.8043 20.9535Z" fill="#D09F64"/>
<path d="M22.5277 29.843C20.1032 29.843 18.891 28.1113 20.1032 28.1113H24.9521C26.1643 28.1113 24.9521 29.843 22.5277 29.843Z" fill="#805334"/>
<defs>
<radialGradient id="paint0_radial_56_211" cx="0" cy="0" r="1" gradientUnits="userSpaceOnUse" gradientTransform="translate(17.434 7.88679) rotate(55.5915) scale(55.0923 67.7234)">
<stop stop-color="#22FFCA"/>
<stop offset="1" stop-color="#FF008A"/>
</radialGradient>
</defs>
</svg>
