<svg width="18" height="18" viewBox="0 0 18 18" fill="none" xmlns="http://www.w3.org/2000/svg">
<path fill-rule="evenodd" clip-rule="evenodd" d="M12.7681 11.4962L17.5631 16.2913C17.7316 16.4599 17.8263 16.6886 17.8262 16.9271C17.8261 17.1655 17.7313 17.3941 17.5627 17.5627C17.394 17.7312 17.1653 17.8258 16.9269 17.8258C16.6884 17.8257 16.4598 17.7309 16.2913 17.5622L11.4962 12.7672C10.0628 13.8774 8.2603 14.3999 6.45534 14.2283C4.65039 14.0567 2.9786 13.2039 1.78007 11.8435C0.581532 10.483 -0.0537124 8.7171 0.0035618 6.90492C0.060836 5.09273 0.806326 3.37043 2.08838 2.08838C3.37042 0.806326 5.09273 0.060836 6.90492 0.0035618C8.7171 -0.0537124 10.483 0.581532 11.8435 1.78007C13.2039 2.9786 14.0567 4.65039 14.2283 6.45534C14.3999 8.2603 13.8774 10.0628 12.7672 11.4962H12.7681ZM7.13081 12.4775C8.54909 12.4775 9.90927 11.9141 10.9121 10.9113C11.915 9.90838 12.4784 8.5482 12.4784 7.12992C12.4784 5.71165 11.915 4.35146 10.9121 3.34859C9.90927 2.34572 8.54909 1.78231 7.13081 1.78231C5.71254 1.78231 4.35235 2.34572 3.34948 3.34859C2.34661 4.35146 1.7832 5.71165 1.7832 7.12992C1.7832 8.5482 2.34661 9.90838 3.34948 10.9113C4.35235 11.9141 5.71254 12.4775 7.13081 12.4775Z" fill="#A0A0A0"/>
</svg>
